<svg xmlns="http://www.w3.org/2000/svg" viewBox="0 0 32 32" fill="none">
  <rect width="32" height="32" rx="8" fill="url(#grad)"/>
  <defs>
    <linearGradient id="grad" x1="0" y1="0" x2="32" y2="32" gradientUnits="userSpaceOnUse">
      <stop offset="0%" stop-color="#0D9488"/>
      <stop offset="100%" stop-color="#0891B2"/>
    </linearGradient>
  </defs>
  <!-- Building icon -->
  <path d="M6 26V9a1.5 1.5 0 011.5-1.5h10A1.5 1.5 0 0119 9v17M6 26h26M19 26V13.5a1.5 1.5 0 011.5-1.5h5A1.5 1.5 0 0127 13.5V26" stroke="white" stroke-width="1.8" stroke-linecap="round" stroke-linejoin="round"/>
  <rect x="9" y="11" width="2" height="2" rx="0.5" fill="white"/>
  <rect x="13" y="11" width="2" height="2" rx="0.5" fill="white"/>
  <rect x="9" y="15" width="2" height="2" rx="0.5" fill="white"/>
  <rect x="13" y="15" width="2" height="2" rx="0.5" fill="white"/>
  <rect x="11" y="20" width="3" height="6" rx="0.5" fill="white"/>
</svg>
